<?xml version="1.0" encoding="utf-8"?>
<svg xmlns="http://www.w3.org/2000/svg" fill="none" height="480" width="912">
  <g clip-path="url(#clip0_2563_17395)">
    <g clip-path="url(#clip1_2563_17395)">
      <path d="m2402 95-93.84 60.06c-57.21 36.612-130.49 36.612-187.69 0-57.21-36.612-130.48-36.612-187.69 0-57.2 36.612-130.48 36.612-187.69 0-57.2-36.612-130.48-36.612-187.68 0-57.21 36.612-130.49 36.612-187.69 0-57.21-36.612-130.48-36.612-187.69 0-57.2 36.612-130.48 36.612-187.686 0-57.206-36.612-130.482-36.612-187.688 0-57.206 36.612-130.481 36.612-187.687 0-57.206-36.612-130.482-36.612-187.688 0-57.206 36.612-130.481 36.612-187.687 0-57.206-36.612-130.482-36.612-187.688 0-57.206 36.612-130.481 36.612-187.687 0-57.206-36.612-130.482-36.612-187.688 0-57.206 36.612-130.481 36.612-187.687 0L-601 95v382h3003V95Z" fill="url(#paint0_linear_2563_17395)" fill-opacity=".2"/>
      <path d="m2402 95-93.84 60.06c-57.21 36.612-130.49 36.612-187.69 0-57.21-36.612-130.48-36.612-187.69 0-57.2 36.612-130.48 36.612-187.69 0-57.2-36.612-130.48-36.612-187.68 0-57.21 36.612-130.49 36.612-187.69 0-57.21-36.612-130.48-36.612-187.69 0-57.2 36.612-130.48 36.612-187.686 0-57.206-36.612-130.482-36.612-187.688 0-57.206 36.612-130.481 36.612-187.687 0-57.206-36.612-130.482-36.612-187.688 0-57.206 36.612-130.481 36.612-187.687 0-57.206-36.612-130.482-36.612-187.688 0-57.206 36.612-130.481 36.612-187.687 0-57.206-36.612-130.482-36.612-187.688 0-57.206 36.612-130.481 36.612-187.687 0L-601 95" stroke="#F3F3F3"/>
      <path d="m2402 85-93.84 60.06c-57.21 36.612-130.49 36.612-187.69 0-57.21-36.612-130.48-36.612-187.69 0-57.2 36.612-130.48 36.612-187.69 0-57.2-36.612-130.48-36.612-187.68 0-57.21 36.612-130.49 36.612-187.69 0-57.21-36.612-130.48-36.612-187.69 0-57.2 36.612-130.48 36.612-187.686 0-57.206-36.612-130.482-36.612-187.688 0-57.206 36.612-130.481 36.612-187.687 0-57.206-36.612-130.482-36.612-187.688 0-57.206 36.612-130.481 36.612-187.687 0-57.206-36.612-130.482-36.612-187.688 0-57.206 36.612-130.481 36.612-187.687 0-57.206-36.612-130.482-36.612-187.688 0-57.206 36.612-130.481 36.612-187.687 0L-601 85" opacity=".6" stroke="#F3F3F3"/>
      <path d="m2402 75-93.84 60.06c-57.21 36.612-130.49 36.612-187.69 0-57.21-36.612-130.48-36.612-187.69 0-57.2 36.612-130.48 36.612-187.69 0-57.2-36.612-130.48-36.612-187.68 0-57.21 36.612-130.49 36.612-187.69 0-57.21-36.612-130.48-36.612-187.69 0-57.2 36.612-130.48 36.612-187.686 0-57.206-36.612-130.482-36.612-187.688 0-57.206 36.612-130.481 36.612-187.687 0-57.206-36.612-130.482-36.612-187.688 0-57.206 36.612-130.481 36.612-187.687 0-57.206-36.612-130.482-36.612-187.688 0-57.206 36.612-130.481 36.612-187.687 0-57.206-36.612-130.482-36.612-187.688 0-57.206 36.612-130.481 36.612-187.687 0L-601 75" opacity=".3" stroke="#F3F3F3"/>
      <path d="m2402 65-93.84 60.06c-57.21 36.612-130.49 36.612-187.69 0-57.21-36.612-130.48-36.612-187.69 0-57.2 36.612-130.48 36.612-187.69 0-57.2-36.612-130.48-36.612-187.68 0-57.21 36.612-130.49 36.612-187.69 0-57.21-36.612-130.48-36.612-187.69 0-57.2 36.612-130.48 36.612-187.686 0-57.206-36.612-130.482-36.612-187.688 0-57.206 36.612-130.481 36.612-187.687 0-57.206-36.612-130.482-36.612-187.688 0-57.206 36.612-130.481 36.612-187.687 0-57.206-36.612-130.482-36.612-187.688 0-57.206 36.612-130.481 36.612-187.687 0-57.206-36.612-130.482-36.612-187.688 0-57.206 36.612-130.481 36.612-187.687 0L-601 65" opacity=".1" stroke="#F3F3F3"/>
      <path d="M192.5 129v117" stroke="url(#paint1_linear_2563_17395)" stroke-dasharray="1 4"/>
      <path d="m176.2 254.11-2.522 6.89h-1.326l-2.522-6.89h1.144l2.041 5.772 2.041-5.772h1.144Zm4.61 7.098c-2.002 0-3.263-1.872-3.263-4.81 0-2.964 1.261-4.836 3.263-4.836s3.263 1.872 3.263 4.836c0 2.938-1.261 4.81-3.263 4.81Zm-2.132-4.81c0 2.288.832 3.744 2.132 3.744 1.3 0 2.132-1.456 2.132-3.744 0-2.314-.832-3.77-2.132-3.77-1.3 0-2.132 1.456-2.132 3.77Zm9.173 3.133h1.508V261h-1.508v-1.469Zm5.403.403h2.808v-5.798h-2.275v-.923h1.092c.988 0 1.417-.442 1.417-1.443h.858v8.164h2.587V261h-6.487v-1.066Zm10.187-.403h1.508V261h-1.508v-1.469Zm5.403.403h2.808v-5.798h-2.275v-.923h1.092c.988 0 1.417-.442 1.417-1.443h.858v8.164h2.587V261h-6.487v-1.066ZM156.49 281l3.341-9.23h1.456l3.341 9.23h-1.196l-.923-2.639h-3.9l-.923 2.639h-1.196Zm2.496-3.705h3.146l-1.573-4.563-1.573 4.563Zm7.11-5.525h1.092V281h-1.092v-9.23Zm7.457 6.214c.234 1.248 1.118 2.106 2.587 2.106 1.196 0 2.002-.494 2.002-1.417 0-.936-.806-1.508-2.665-1.989-1.534-.39-2.873-1.118-2.873-2.6 0-1.547 1.248-2.522 3.016-2.522 1.976 0 3.289 1.235 3.471 2.925l-1.144.078c-.156-1.157-1.053-1.937-2.34-1.937-1.079 0-1.859.559-1.859 1.456 0 1.131 1.313 1.443 2.522 1.781 1.703.468 3.016 1.3 3.016 2.704 0 1.69-1.56 2.587-3.224 2.587-2.028 0-3.51-1.248-3.653-3.094l1.144-.078Zm7.779-5.434h1.066v1.56h1.833v.949h-1.833v4.121c0 .585.286.871.832.871h.988V281h-.988c-1.222 0-1.898-.65-1.898-1.82v-4.121h-1.014v-.949h1.014v-1.56Zm4.503 1.56h.936l.039 1.274c.234-.871.754-1.274 1.651-1.274h.663v.936h-.663c-1.053 0-1.56.65-1.56 1.846V281h-1.066v-6.89Zm10.41 6.89h-1.014v-1.17c-.351.897-1.17 1.326-2.08 1.326-1.534 0-2.288-1.157-2.288-2.613v-4.433h1.066v4.108c0 1.287.429 1.989 1.443 1.989 1.092 0 1.807-.702 1.807-1.989v-4.108h1.066V281Zm6.604-4.589c-.156-.91-.897-1.443-1.742-1.443-1.287 0-2.028.975-2.028 2.587s.741 2.587 2.028 2.587c.884 0 1.638-.585 1.794-1.573l1.131.065c-.221 1.56-1.456 2.522-2.925 2.522-1.911 0-3.146-1.417-3.146-3.601s1.235-3.601 3.146-3.601c1.417 0 2.678.91 2.86 2.379l-1.118.078Zm3.061-3.861h1.066v1.56h1.833v.949h-1.833v4.121c0 .585.286.871.832.871h.988V281h-.988c-1.222 0-1.898-.65-1.898-1.82v-4.121h-1.014v-.949h1.014v-1.56Zm9.912 8.45h-1.014v-1.17c-.351.897-1.17 1.326-2.08 1.326-1.534 0-2.288-1.157-2.288-2.613v-4.433h1.066v4.108c0 1.287.429 1.989 1.443 1.989 1.092 0 1.807-.702 1.807-1.989v-4.108h1.066V281Zm2.209-6.89h.936l.039 1.274c.234-.871.754-1.274 1.651-1.274h.663v.936h-.663c-1.053 0-1.56.65-1.56 1.846V281h-1.066v-6.89Zm3.987 3.445c0-2.184 1.235-3.601 3.146-3.601 1.534 0 2.873 1.027 2.99 3.458l.013.481h-5.018c.104 1.417.819 2.249 2.015 2.249.754 0 1.43-.442 1.742-1.17l1.144.078c-.403 1.3-1.56 2.106-2.886 2.106-1.911 0-3.146-1.417-3.146-3.601Zm1.157-.611h3.822c-.195-1.456-.975-1.976-1.833-1.976-1.105 0-1.82.728-1.989 1.976ZM167.778 301h-.806l-.104-1.534c-.39 1.027-1.534 1.742-2.769 1.742-2.652 0-4.173-2.119-4.173-4.81 0-2.704 1.508-4.836 4.173-4.836 1.937 0 3.224 1.209 3.64 2.912l-1.144.078c-.312-1.144-1.17-1.924-2.496-1.924-2.106 0-3.029 1.742-3.029 3.77 0 2.015.936 3.744 3.029 3.744 1.612 0 2.522-1.183 2.613-2.73h-2.613v-1.066h3.679V301Zm1.44-3.445c0-2.184 1.235-3.601 3.146-3.601 1.534 0 2.873 1.027 2.99 3.458l.013.481h-5.018c.104 1.417.819 2.249 2.015 2.249.754 0 1.43-.442 1.742-1.17l1.144.078c-.403 1.3-1.56 2.106-2.886 2.106-1.911 0-3.146-1.417-3.146-3.601Zm1.157-.611h3.822c-.195-1.456-.975-1.976-1.833-1.976-1.105 0-1.82.728-1.989 1.976Zm6.65-2.834H178l.039 1.183c.351-.923 1.17-1.339 2.119-1.339 1.573 0 2.327 1.157 2.327 2.613V301h-1.066v-4.121c0-1.274-.429-1.976-1.482-1.976-1.118 0-1.846.702-1.846 1.976V301h-1.066v-6.89Zm6.907 3.445c0-2.184 1.235-3.601 3.146-3.601 1.534 0 2.873 1.027 2.99 3.458l.013.481h-5.018c.104 1.417.819 2.249 2.015 2.249.754 0 1.43-.442 1.742-1.17l1.144.078c-.403 1.3-1.56 2.106-2.886 2.106-1.911 0-3.146-1.417-3.146-3.601Zm1.157-.611h3.822c-.195-1.456-.975-1.976-1.833-1.976-1.105 0-1.82.728-1.989 1.976Zm6.65-2.834h.936l.039 1.274c.234-.871.754-1.274 1.651-1.274h.663v.936h-.663c-1.053 0-1.56.65-1.56 1.846V301h-1.066v-6.89Zm4.371 2.028c.273-1.339 1.339-2.184 2.808-2.184 1.781 0 2.769 1.04 2.769 2.886v2.769c0 .312.13.442.429.442h.273V301h-.455c-.702 0-1.313-.234-1.3-1.079-.299.65-1.079 1.235-2.171 1.235-1.365 0-2.47-.728-2.47-1.95 0-1.417 1.079-1.781 2.587-2.08l2.041-.39c-.013-1.196-.572-1.768-1.703-1.768-.884 0-1.469.455-1.677 1.261l-1.131-.091Zm1.001 3.068c0 .559.481 1.014 1.495 1.001 1.144 0 2.041-.806 2.041-2.405v-.117l-1.651.286c-1.027.182-1.885.26-1.885 1.235Zm6.882-6.656h1.066v1.56h1.833v.949h-1.833v4.121c0 .585.286.871.832.871h.988V301h-.988c-1.222 0-1.898-.65-1.898-1.82v-4.121h-1.014v-.949h1.014v-1.56Zm4.504 1.56h1.066V301h-1.066v-6.89Zm-.026-1.079v-1.235h1.118v1.235h-1.118Zm5.953 8.125c-1.911 0-3.146-1.417-3.146-3.601s1.235-3.601 3.146-3.601c1.911 0 3.146 1.417 3.146 3.601s-1.235 3.601-3.146 3.601Zm-2.028-3.601c0 1.612.741 2.587 2.028 2.587 1.274 0 2.028-.975 2.028-2.587s-.754-2.587-2.028-2.587c-1.287 0-2.028.975-2.028 2.587Zm6.828-3.445h.975l.039 1.183c.351-.923 1.17-1.339 2.119-1.339 1.573 0 2.327 1.157 2.327 2.613V301h-1.066v-4.121c0-1.274-.429-1.976-1.482-1.976-1.118 0-1.846.702-1.846 1.976V301h-1.066v-6.89Z" fill="#909090"/>
      <path d="M276.5 171v170" stroke="url(#paint2_linear_2563_17395)" stroke-dasharray="1 4"/>
      <path d="m260.2 349.11-2.522 6.89h-1.326l-2.522-6.89h1.144l2.041 5.772 2.041-5.772h1.144Zm4.61 7.098c-2.002 0-3.263-1.872-3.263-4.81 0-2.964 1.261-4.836 3.263-4.836s3.263 1.872 3.263 4.836c0 2.938-1.261 4.81-3.263 4.81Zm-2.132-4.81c0 2.288.832 3.744 2.132 3.744 1.3 0 2.132-1.456 2.132-3.744 0-2.314-.832-3.77-2.132-3.77-1.3 0-2.132 1.456-2.132 3.77Zm9.173 3.133h1.508V356h-1.508v-1.469Zm5.494-5.005c.247-1.716 1.456-2.964 3.302-2.964 1.677 0 2.925 1.118 2.925 2.626 0 1.326-1.053 2.249-2.457 3.107-.78.455-2.548 1.703-2.587 2.639h5.109V356h-6.461c0-2.704 1.937-3.731 3.549-4.732 1.001-.637 1.703-1.352 1.703-2.08 0-.91-.728-1.56-1.781-1.56-1.144 0-1.911.702-2.158 1.976l-1.144-.078Zm10.096 5.005h1.508V356h-1.508v-1.469Zm5.494-5.005c.247-1.716 1.456-2.964 3.302-2.964 1.677 0 2.925 1.118 2.925 2.626 0 1.326-1.053 2.249-2.457 3.107-.78.455-2.548 1.703-2.587 2.639h5.109V356h-6.461c0-2.704 1.937-3.731 3.549-4.732 1.001-.637 1.703-1.352 1.703-2.08 0-.91-.728-1.56-1.781-1.56-1.144 0-1.911.702-2.158 1.976l-1.144-.078ZM250.998 366.77v1.066h-2.873V376h-1.092v-8.164h-2.886v-1.066h6.851Zm.037 5.785c0-2.184 1.235-3.601 3.146-3.601 1.534 0 2.873 1.027 2.99 3.458l.013.481h-5.018c.104 1.417.819 2.249 2.015 2.249.754 0 1.43-.442 1.742-1.17l1.144.078c-.403 1.3-1.56 2.106-2.886 2.106-1.911 0-3.146-1.417-3.146-3.601Zm1.157-.611h3.822c-.195-1.456-.975-1.976-1.833-1.976-1.105 0-1.82.728-1.989 1.976Zm6.399-.806c.273-1.339 1.339-2.184 2.808-2.184 1.781 0 2.769 1.04 2.769 2.886v2.769c0 .312.13.442.429.442h.273V376h-.455c-.702 0-1.313-.234-1.3-1.079-.299.65-1.079 1.235-2.171 1.235-1.365 0-2.47-.728-2.47-1.95 0-1.417 1.079-1.781 2.587-2.08l2.041-.39c-.013-1.196-.572-1.768-1.703-1.768-.884 0-1.469.455-1.677 1.261l-1.131-.091Zm1.001 3.068c0 .559.481 1.014 1.495 1.001 1.144 0 2.041-.806 2.041-2.405v-.117l-1.651.286c-1.027.182-1.885.26-1.885 1.235Zm6.74-5.096h.975l.039 1.17c.312-.845 1.027-1.326 1.989-1.326.988 0 1.703.533 2.002 1.456.299-.936 1.027-1.456 2.106-1.456 1.378 0 2.184.962 2.184 2.613V376h-1.066v-4.121c0-1.261-.494-1.976-1.339-1.976-1.079 0-1.703.728-1.703 1.989V376h-1.066v-4.121c0-1.235-.507-1.976-1.339-1.976-1.066 0-1.716.754-1.716 1.976V376h-1.066v-6.89Zm15.148 2.119c-.156-.793-.936-1.261-1.716-1.261-.78 0-1.404.403-1.404 1.066.013.676.884.962 1.664 1.131 1.573.299 2.704.741 2.704 2.08 0 1.326-1.365 1.911-2.678 1.911-1.625 0-2.873-.897-2.977-2.314l1.118-.078c.13.832.806 1.378 1.859 1.378.702 0 1.56-.234 1.56-.949 0-.832-.988-.923-1.781-1.118-1.274-.299-2.574-.663-2.574-1.976-.013-1.313 1.053-2.145 2.626-2.145 1.378 0 2.496.871 2.717 2.197l-1.118.078Zm5.841-.091c.273-1.339 1.339-2.184 2.808-2.184 1.781 0 2.769 1.04 2.769 2.886v2.769c0 .312.13.442.429.442h.273V376h-.455c-.702 0-1.313-.234-1.3-1.079-.299.65-1.079 1.235-2.171 1.235-1.365 0-2.47-.728-2.47-1.95 0-1.417 1.079-1.781 2.587-2.08l2.041-.39c-.013-1.196-.572-1.768-1.703-1.768-.884 0-1.469.455-1.677 1.261l-1.131-.091Zm1.001 3.068c0 .559.481 1.014 1.495 1.001 1.144 0 2.041-.806 2.041-2.405v-.117l-1.651.286c-1.027.182-1.885.26-1.885 1.235Zm6.739-5.096h.975l.039 1.183c.351-.923 1.17-1.339 2.119-1.339 1.573 0 2.327 1.157 2.327 2.613V376h-1.066v-4.121c0-1.274-.429-1.976-1.482-1.976-1.118 0-1.846.702-1.846 1.976V376h-1.066v-6.89Zm13.017-2.34V376h-.962l-.039-1.014c-.39.728-1.131 1.17-2.197 1.17-1.989 0-2.912-1.69-2.912-3.601s.923-3.601 2.912-3.601c1.014 0 1.742.39 2.132 1.092v-3.276h1.066Zm-4.992 5.785c0 1.339.572 2.587 2.015 2.587 1.417 0 2.002-1.274 2.002-2.587 0-1.365-.585-2.626-2.002-2.626-1.443 0-2.015 1.248-2.015 2.626Zm-59.413 14.215h1.521l2.977 8.034 2.977-8.034h1.521V396h-1.092v-7.059L248.899 396h-1.456l-2.678-7.059V396h-1.092v-9.23Zm16.704 9.23h-1.014v-1.17c-.351.897-1.17 1.326-2.08 1.326-1.534 0-2.288-1.157-2.288-2.613v-4.433h1.066v4.108c0 1.287.429 1.989 1.443 1.989 1.092 0 1.807-.702 1.807-1.989v-4.108h1.066V396Zm2.235-9.23h1.066v7.852c0 .299.143.429.442.429h.585V396h-.741c-.819 0-1.352-.533-1.352-1.326v-7.904Zm3.761.78h1.066v1.56h1.833v.949h-1.833v4.121c0 .585.286.871.832.871h.988V396h-.988c-1.222 0-1.898-.65-1.898-1.82v-4.121h-1.014v-.949h1.014v-1.56Zm4.503 1.56h1.066V396h-1.066v-6.89Zm-.026-1.079v-1.235h1.118v1.235h-1.118Zm3.124 9.919v-8.84h.962l.039 1.053c.377-.78 1.131-1.209 2.132-1.209 2.054 0 2.977 1.69 2.977 3.601s-.923 3.601-2.977 3.601c-.962 0-1.69-.403-2.067-1.144v2.938h-1.066Zm.949-5.395c0 1.313.598 2.574 2.002 2.574 1.43 0 2.015-1.235 2.015-2.574 0-1.339-.585-2.587-2.015-2.587-1.404 0-2.002 1.274-2.002 2.587Zm6.897-5.785h1.066v7.852c0 .299.143.429.442.429h.585V396h-.741c-.819 0-1.352-.533-1.352-1.326v-7.904Zm3.343 4.368c.273-1.339 1.339-2.184 2.808-2.184 1.781 0 2.769 1.04 2.769 2.886v2.769c0 .312.13.442.429.442h.273V396h-.455c-.702 0-1.313-.234-1.3-1.079-.299.65-1.079 1.235-2.171 1.235-1.365 0-2.47-.728-2.47-1.95 0-1.417 1.079-1.781 2.587-2.08l2.041-.39c-.013-1.196-.572-1.768-1.703-1.768-.884 0-1.469.455-1.677 1.261l-1.131-.091Zm1.001 3.068c0 .559.481 1.014 1.495 1.001 1.144 0 2.041-.806 2.041-2.405v-.117l-1.651.286c-1.027.182-1.885.26-1.885 1.235Zm5.704-5.096h1.144l2.093 5.746 2.015-5.746h1.131l-2.795 7.761c-.26.741-.754 1.079-1.534 1.079h-.819v-.949h.715c.351 0 .559-.13.689-.494l.247-.637h-.364l-2.522-6.76Zm6.952 3.445c0-2.184 1.235-3.601 3.146-3.601 1.534 0 2.873 1.027 2.99 3.458l.013.481h-5.018c.104 1.417.819 2.249 2.015 2.249.754 0 1.43-.442 1.742-1.17l1.144.078c-.403 1.3-1.56 2.106-2.886 2.106-1.911 0-3.146-1.417-3.146-3.601Zm1.157-.611h3.822c-.195-1.456-.975-1.976-1.833-1.976-1.105 0-1.82.728-1.989 1.976Zm6.649-2.834h.936l.039 1.274c.234-.871.754-1.274 1.651-1.274h.663v.936h-.663c-1.053 0-1.56.65-1.56 1.846V396h-1.066v-6.89Z" fill="#909090"/>
      <rect height="21" rx="10.5" stroke="#252525" width="56" x="309.5" y="66.5"/>
      <path d="m330.535 75.17-2.09 5.83h-1.672l-2.09-5.83h1.551l1.375 4.213 1.375-4.213h1.551Zm3.669 6.006c-1.782 0-2.86-1.639-2.86-4.07 0-2.442 1.078-4.092 2.86-4.092 1.782 0 2.86 1.65 2.86 4.092 0 2.431-1.078 4.07-2.86 4.07Zm-1.287-4.07c0 1.738.473 2.717 1.287 2.717s1.287-.979 1.287-2.717c0-1.76-.473-2.739-1.287-2.739s-1.287.979-1.287 2.739Zm7.069 2.277h1.628V81h-1.628v-1.617Zm4.671-3.718c.099-1.518 1.199-2.651 2.871-2.651 1.595 0 2.739 1.012 2.739 2.398 0 1.089-.792 1.903-1.815 2.464-.561.297-1.892 1.089-2.046 1.771h3.883V81h-5.764c0-2.299 1.023-3.113 2.805-4.191.737-.44 1.364-.847 1.364-1.419 0-.572-.484-1.023-1.166-1.023-.748 0-1.221.572-1.309 1.408l-1.562-.11ZM301.779 96.77c2.054 0 3.263 1.04 3.263 2.782 0 1.781-1.209 2.847-3.263 2.847h-2.21V106h-1.092v-9.23h3.302Zm-2.21 4.563h2.21c1.417 0 2.119-.598 2.119-1.781 0-1.144-.702-1.716-2.119-1.716h-2.21v3.497Zm7.145-2.223h.936l.039 1.274c.234-.871.754-1.274 1.651-1.274h.663v.936h-.663c-1.053 0-1.56.65-1.56 1.846V106h-1.066v-6.89Zm4.621 0h1.066V106h-1.066v-6.89Zm-.026-1.079v-1.235h1.118v1.235h-1.118Zm8.853 1.079L317.64 106h-1.326l-2.522-6.89h1.144l2.041 5.772 2.041-5.772h1.144Zm.762 2.028c.273-1.339 1.339-2.184 2.808-2.184 1.781 0 2.769 1.04 2.769 2.886v2.769c0 .312.13.442.429.442h.273V106h-.455c-.702 0-1.313-.234-1.3-1.079-.299.65-1.079 1.235-2.171 1.235-1.365 0-2.47-.728-2.47-1.95 0-1.417 1.079-1.781 2.587-2.08l2.041-.39c-.013-1.196-.572-1.768-1.703-1.768-.884 0-1.469.455-1.677 1.261l-1.131-.091Zm1.001 3.068c0 .559.481 1.014 1.495 1.001 1.144 0 2.041-.806 2.041-2.405v-.117l-1.651.286c-1.027.182-1.885.26-1.885 1.235Zm6.883-6.656h1.066v1.56h1.833v.949h-1.833v4.121c0 .585.286.871.832.871h.988V106h-.988c-1.222 0-1.898-.65-1.898-1.82v-4.121h-1.014v-.949h1.014v-1.56Zm3.755 5.005c0-2.184 1.235-3.601 3.146-3.601 1.534 0 2.873 1.027 2.99 3.458l.013.481h-5.018c.104 1.417.819 2.249 2.015 2.249.754 0 1.43-.442 1.742-1.17l1.144.078c-.403 1.3-1.56 2.106-2.886 2.106-1.911 0-3.146-1.417-3.146-3.601Zm1.157-.611h3.822c-.195-1.456-.975-1.976-1.833-1.976-1.105 0-1.82.728-1.989 1.976Zm9.131 4.056 3.341-9.23h1.456l3.341 9.23h-1.196l-.923-2.639h-3.9l-.923 2.639h-1.196Zm2.496-3.705h3.146l-1.573-4.563-1.573 4.563Zm7.046-5.525h1.066v7.852c0 .299.143.429.442.429h.585V106h-.741c-.819 0-1.352-.533-1.352-1.326V96.77Zm3.617 11.18v-8.84h.962l.039 1.053c.377-.78 1.131-1.209 2.132-1.209 2.054 0 2.977 1.69 2.977 3.601s-.923 3.601-2.977 3.601c-.962 0-1.69-.403-2.067-1.144v2.938h-1.066Zm.949-5.395c0 1.313.598 2.574 2.002 2.574 1.43 0 2.015-1.235 2.015-2.574 0-1.339-.585-2.587-2.015-2.587-1.404 0-2.002 1.274-2.002 2.587Zm6.808-5.785h1.066v3.302c.403-.767 1.209-1.118 2.067-1.118 1.573 0 2.327 1.157 2.327 2.613V106h-1.066v-4.043c0-1.287-.429-1.989-1.482-1.989-1.118 0-1.846.702-1.846 1.989V106h-1.066v-9.23Zm7.215 4.368c.273-1.339 1.339-2.184 2.808-2.184 1.781 0 2.769 1.04 2.769 2.886v2.769c0 .312.13.442.429.442h.273V106h-.455c-.702 0-1.313-.234-1.3-1.079-.299.65-1.079 1.235-2.171 1.235-1.365 0-2.47-.728-2.47-1.95 0-1.417 1.079-1.781 2.587-2.08l2.041-.39c-.013-1.196-.572-1.768-1.703-1.768-.884 0-1.469.455-1.677 1.261l-1.131-.091Zm1.001 3.068c0 .559.481 1.014 1.495 1.001 1.144 0 2.041-.806 2.041-2.405v-.117l-1.651.286c-1.027.182-1.885.26-1.885 1.235Z" fill="#CCC"/>
      <path d="M337.5 114v60" stroke="#CCC" stroke-linecap="round"/>
      <circle cx="337.5" cy="182" fill="#CCC" r="5"/>
      <rect fill="#CCC" height="20" rx="10" width="53" x="311" y="190"/>
      <path d="M321.953 198.578c.221-1.742 1.482-3.016 3.38-3.016 1.755 0 3.042 1.131 3.042 2.678 0 1.365-1.079 2.262-2.431 3.081-.637.364-2.392 1.534-2.444 2.405h4.94V205h-6.63c0-2.782 1.885-3.848 3.51-4.849.949-.598 1.625-1.235 1.625-1.924 0-.806-.663-1.391-1.612-1.391-1.027 0-1.729.65-1.95 1.833l-1.43-.091Zm11.434 6.63c-2.314 0-3.731-1.872-3.731-4.81 0-2.964 1.417-4.836 3.731-4.836 2.327 0 3.744 1.872 3.744 4.836 0 2.938-1.417 4.81-3.744 4.81Zm-2.301-4.81c0 2.275.819 3.536 2.301 3.536 1.495 0 2.314-1.261 2.314-3.536 0-2.288-.819-3.562-2.314-3.562-1.482 0-2.301 1.274-2.301 3.562Zm7.409-1.82c.221-1.742 1.482-3.016 3.38-3.016 1.755 0 3.042 1.131 3.042 2.678 0 1.365-1.079 2.262-2.431 3.081-.637.364-2.392 1.534-2.444 2.405h4.94V205h-6.63c0-2.782 1.885-3.848 3.51-4.849.949-.598 1.625-1.235 1.625-1.924 0-.806-.663-1.391-1.612-1.391-1.027 0-1.729.65-1.95 1.833l-1.43-.091Zm11.044.936c.806.013 1.755-.364 1.755-1.469 0-.741-.676-1.209-1.755-1.209-.897 0-1.521.429-1.625 1.105l-1.43-.078c.169-1.352 1.43-2.301 3.068-2.301 1.885 0 3.172.975 3.172 2.405 0 1.04-.598 1.729-1.755 2.041 1.339.364 2.067 1.248 2.067 2.457 0 1.625-1.417 2.743-3.484 2.743-1.911 0-3.276-1.092-3.354-2.678l1.417-.078c.091 1.053 1.092 1.482 1.937 1.482 1.014 0 2.067-.468 2.067-1.625 0-1.144-1.066-1.651-2.08-1.625l-.728.013v-1.196l.728.013Z" fill="#040404"/>
      <rect height="22" rx="11" stroke="#FF6C02" width="61" x="494" y="6.5"/>
      <path d="m516.268 15.11-2.47 6.89h-1.976l-2.47-6.89h1.833l1.625 4.979 1.625-4.979h1.833Zm4.337 7.098c-2.106 0-3.38-1.937-3.38-4.81 0-2.886 1.274-4.836 3.38-4.836s3.38 1.95 3.38 4.836c0 2.873-1.274 4.81-3.38 4.81Zm-1.521-4.81c0 2.054.559 3.211 1.521 3.211.962 0 1.521-1.157 1.521-3.211 0-2.08-.559-3.237-1.521-3.237-.962 0-1.521 1.157-1.521 3.237Zm8.354 2.691h1.924V22h-1.924v-1.911Zm8.614-3.757c.715.013 1.352-.338 1.352-1.157 0-.611-.468-1.014-1.222-1.014-.689 0-1.196.377-1.274.923l-1.872-.078c.169-1.469 1.417-2.444 3.146-2.444 1.859 0 3.081 1.001 3.081 2.444 0 1.001-.624 1.703-1.664 2.002 1.287.325 1.976 1.313 1.976 2.379 0 1.664-1.378 2.821-3.393 2.821-1.794 0-3.315-1.027-3.393-2.808l1.859-.078c.065.845.793 1.287 1.534 1.287.936 0 1.547-.52 1.547-1.313 0-.897-.65-1.456-1.677-1.443l-.559.013v-1.547l.559.013ZM480.669 38.22c2.952 0 4.752 1.53 4.752 4.05 0 2.538-1.8 4.086-4.752 4.086h-2.628V51h-2.268V38.22h4.896Zm-2.628 6.138h2.538c1.638 0 2.502-.702 2.502-2.088 0-1.368-.864-2.052-2.502-2.052h-2.538v4.14ZM495.704 51h-2.07l-.036-1.494c-.522 1.224-1.584 1.71-2.808 1.71-2.07 0-3.222-1.494-3.222-3.618V41.46h2.232v5.418c0 1.62.432 2.502 1.656 2.502 1.242 0 2.016-.882 2.016-2.502V41.46h2.232V51Zm2.513-12.78h2.232v4.518c.558-.972 1.53-1.494 2.862-1.494 2.7 0 4.032 2.268 4.032 4.986s-1.332 4.986-4.032 4.986c-1.404 0-2.394-.576-2.934-1.566l-.054 1.35h-2.106V38.22Zm2.088 8.01c0 1.638.702 3.15 2.376 3.15 1.656 0 2.376-1.512 2.376-3.15 0-1.71-.702-3.222-2.376-3.222s-2.376 1.512-2.376 3.222Zm9.288-8.01h2.232v10.35c0 .45.234.666.666.666h.756V51h-1.314c-1.404 0-2.34-.882-2.34-2.34V38.22Zm5.552 3.24h2.232V51h-2.232v-9.54Zm-.036-1.35v-1.89h2.322v1.89h-2.322Zm11.096 4.824c-.162-1.188-1.044-1.854-2.07-1.854-1.512 0-2.376 1.17-2.376 3.15s.864 3.15 2.376 3.15c1.08 0 1.944-.684 2.142-1.98l2.304.108c-.27 2.286-2.124 3.708-4.446 3.708-2.826 0-4.68-1.962-4.68-4.986s1.854-4.986 4.68-4.986c2.25 0 4.122 1.35 4.374 3.564l-2.304.126ZM534.941 51V38.22h4.554c3.294 0 4.932 1.134 4.932 3.546 0 1.494-.918 2.43-2.466 2.61 1.908.198 3.006 1.278 3.006 3.006 0 2.34-1.674 3.618-4.752 3.618h-5.274Zm2.268-1.962h3.042c1.494 0 2.394-.612 2.394-1.8 0-1.188-.9-1.836-2.394-1.836h-3.042v3.636Zm0-5.454h2.412c1.566 0 2.484-.576 2.484-1.692 0-1.17-.864-1.728-2.484-1.728h-2.412v3.42Zm9.528 2.646c0-3.024 1.854-4.986 4.68-4.986 2.412 0 4.374 1.62 4.446 5.004v.594h-6.786c.108 1.62.954 2.574 2.34 2.574.882 0 1.674-.504 2.034-1.332l2.286.162c-.576 1.836-2.286 2.97-4.32 2.97-2.826 0-4.68-1.962-4.68-4.986Zm2.358-.918h4.464c-.198-1.674-1.116-2.286-2.142-2.286-1.296 0-2.124.864-2.322 2.286Zm9.44-6.012h2.232v2.16h2.52v1.746h-2.52v4.896c0 .756.36 1.134 1.08 1.134h1.44V51h-1.782c-1.944 0-2.97-.99-2.97-2.898v-4.896h-1.494V41.46h1.494V39.3Zm6.276 5.058c.378-1.962 1.908-3.114 4.212-3.114 2.736 0 4.176 1.422 4.176 4.086v3.33c0 .54.216.684.594.684h.36V51l-.558.018c-.774 0-2.214-.018-2.358-1.476-.45.936-1.512 1.674-3.15 1.674-1.908 0-3.438-1.026-3.438-2.718 0-1.872 1.386-2.466 3.618-2.898l2.682-.54c-.018-1.458-.63-2.16-1.926-2.16-1.026 0-1.692.54-1.926 1.584l-2.286-.126Zm2.142 4.068c0 .666.558 1.188 1.71 1.188 1.332 0 2.322-.954 2.322-2.898v-.09l-1.836.324c-1.242.234-2.196.36-2.196 1.476Z" fill="#FF6C02"/>
      <path d="M524.5 59v60" stroke="#FF6C02" stroke-linecap="round"/>
      <circle cx="524.5" cy="127" fill="#FF6C02" r="5"/>
      <rect fill="#FF6C02" height="20" rx="10" width="55" x="497" y="135"/>
      <path d="M507.969 143.084c.238-1.876 1.596-3.248 3.64-3.248 1.89 0 3.276 1.218 3.276 2.884 0 1.47-1.162 2.436-2.618 3.318-.686.392-2.576 1.652-2.632 2.59h5.32V150h-7.14c0-2.996 2.03-4.144 3.78-5.222 1.022-.644 1.75-1.33 1.75-2.072 0-.868-.714-1.498-1.736-1.498-1.106 0-1.862.7-2.1 1.974l-1.54-.098Zm12.313 7.14c-2.492 0-4.018-2.016-4.018-5.18 0-3.192 1.526-5.208 4.018-5.208 2.506 0 4.032 2.016 4.032 5.208 0 3.164-1.526 5.18-4.032 5.18Zm-2.478-5.18c0 2.45.882 3.808 2.478 3.808 1.61 0 2.492-1.358 2.492-3.808 0-2.464-.882-3.836-2.492-3.836-1.596 0-2.478 1.372-2.478 3.836Zm7.98-1.96c.238-1.876 1.596-3.248 3.64-3.248 1.89 0 3.276 1.218 3.276 2.884 0 1.47-1.162 2.436-2.618 3.318-.686.392-2.576 1.652-2.632 2.59h5.32V150h-7.14c0-2.996 2.03-4.144 3.78-5.222 1.022-.644 1.75-1.33 1.75-2.072 0-.868-.714-1.498-1.736-1.498-1.106 0-1.862.7-2.1 1.974l-1.54-.098Zm14.581-3.024v6.608h1.12v1.372h-1.12V150h-1.484v-1.96h-5.096v-1.372l4.928-6.608h1.652Zm-4.844 6.608h3.36v-4.494l-3.36 4.494Z" fill="#040404"/>
      <path d="M588 140v133" stroke="url(#paint3_linear_2563_17395)" stroke-dasharray="1 4"/>
      <path d="M558.06 282.272c-.275 1.826-1.353 2.904-2.882 2.904-1.969 0-3.146-1.573-3.146-4.07 0-2.519 1.177-4.092 3.146-4.092 1.463 0 2.541 1.034 2.86 2.794l-1.573.088c-.22-1.023-.66-1.529-1.331-1.529-1.001 0-1.529.946-1.529 2.739 0 1.782.528 2.717 1.529 2.717.715 0 1.166-.539 1.353-1.628l1.573.077Zm3.559 2.86c-1.628 0-2.805-1.221-2.805-3.047s1.177-3.047 2.805-3.047c1.628 0 2.805 1.221 2.805 3.047s-1.177 3.047-2.805 3.047Zm-1.276-3.047c0 1.1.484 1.771 1.276 1.771s1.276-.671 1.276-1.771c0-1.1-.484-1.771-1.276-1.771s-1.276.671-1.276 1.771Zm4.88-2.915h1.232l.044.803c.231-.616.627-.935 1.155-.935s.88.319 1.089 1.001c.198-.649.583-1.001 1.155-1.001.88 0 1.331.77 1.331 2.222V285h-1.408v-3.74c0-.803-.099-1.1-.396-1.1-.33 0-.495.352-.495 1.1V285h-1.408v-3.74c0-.803-.11-1.1-.429-1.1-.308 0-.462.352-.462 1.1V285h-1.408v-5.83Zm10.699 0v4.543h1.65V285h-5.071v-1.287h1.969v-3.256h-1.969v-1.287h3.421Zm-1.485-.715v-1.265h1.474v1.265h-1.474Zm4.681.715h1.331l.055.924c.297-.693.858-1.056 1.595-1.056 1.199 0 1.826.869 1.826 2.211V285h-1.463v-3.465c0-.902-.275-1.364-.891-1.364-.638 0-1.012.462-1.012 1.364V285h-1.441v-5.83Zm8.587 5.522c-1.397 0-2.343-1.122-2.343-2.695 0-1.782.946-2.959 2.343-2.959.748 0 1.287.385 1.584 1.012l.022-.88h1.397v4.972c-.033 1.793-.935 2.64-2.585 2.64-1.386 0-2.288-.649-2.552-1.672l1.507-.099c.176.418.528.649 1.045.649.704 0 1.122-.44 1.133-1.243v-.583c-.286.539-.924.858-1.551.858Zm-.814-2.728c0 1.012.462 1.683 1.232 1.683.748 0 1.21-.671 1.21-1.683.011-1.001-.451-1.683-1.21-1.683-.77 0-1.232.682-1.232 1.683Zm15.227-.924c-.088-.495-.473-.726-1.001-.726-.462 0-.836.187-.814.572.033.418.528.528 1.309.704 1.166.264 2.112.836 2.112 1.826 0 1.144-1.001 1.716-2.409 1.716-1.452 0-2.574-.792-2.662-2.024l1.562-.066c.055.528.506.814 1.1.814.495 0 .88-.121.88-.484 0-.385-.506-.506-1.232-.682-1.243-.297-2.178-.825-2.178-1.804 0-1.133 1.056-1.848 2.431-1.848 1.276 0 2.288.759 2.475 1.936l-1.573.066Zm5.671 4.092c-1.628 0-2.805-1.221-2.805-3.047s1.177-3.047 2.805-3.047c1.628 0 2.805 1.221 2.805 3.047s-1.177 3.047-2.805 3.047Zm-1.276-3.047c0 1.1.484 1.771 1.276 1.771s1.276-.671 1.276-1.771c0-1.1-.484-1.771-1.276-1.771s-1.276.671-1.276 1.771Zm7.872 3.047c-1.628 0-2.805-1.221-2.805-3.047s1.177-3.047 2.805-3.047c1.628 0 2.805 1.221 2.805 3.047s-1.177 3.047-2.805 3.047Zm-1.276-3.047c0 1.1.484 1.771 1.276 1.771s1.276-.671 1.276-1.771c0-1.1-.484-1.771-1.276-1.771s-1.276.671-1.276 1.771Zm5.584-2.915h1.331l.055.924c.297-.693.858-1.056 1.595-1.056 1.199 0 1.826.869 1.826 2.211V285h-1.463v-3.465c0-.902-.275-1.364-.891-1.364-.638 0-1.012.462-1.012 1.364V285h-1.441v-5.83Z" fill="#CCC"/>
      <path d="M544.445 304v-9.23h3.159c2.184 0 3.263.845 3.263 2.548 0 1.04-.611 1.742-1.612 1.924 1.248.169 2.002.962 2.002 2.158 0 1.677-1.118 2.6-3.133 2.6h-3.679Zm1.092-1.066h2.587c1.287 0 2.002-.546 2.002-1.534s-.728-1.56-2.002-1.56h-2.587v3.094Zm0-4.16h2.067c1.365 0 2.132-.52 2.132-1.456 0-.988-.702-1.482-2.132-1.482h-2.067v2.938Zm7.628-1.664h.936l.039 1.274c.234-.871.754-1.274 1.651-1.274h.663v.936h-.663c-1.053 0-1.56.65-1.56 1.846V304h-1.066v-6.89Zm4.371 2.028c.273-1.339 1.339-2.184 2.808-2.184 1.781 0 2.769 1.04 2.769 2.886v2.769c0 .312.13.442.429.442h.273V304h-.455c-.702 0-1.313-.234-1.3-1.079-.299.65-1.079 1.235-2.171 1.235-1.365 0-2.47-.728-2.47-1.95 0-1.417 1.079-1.781 2.587-2.08l2.041-.39c-.013-1.196-.572-1.768-1.703-1.768-.884 0-1.469.455-1.677 1.261l-1.131-.091Zm1.001 3.068c0 .559.481 1.014 1.495 1.001 1.144 0 2.041-.806 2.041-2.405v-.117l-1.651.286c-1.027.182-1.885.26-1.885 1.235Zm6.739-5.096h.975l.039 1.183c.351-.923 1.17-1.339 2.119-1.339 1.573 0 2.327 1.157 2.327 2.613V304h-1.066v-4.121c0-1.274-.429-1.976-1.482-1.976-1.118 0-1.846.702-1.846 1.976V304h-1.066v-6.89Zm11.795 2.301c-.156-.91-.897-1.443-1.742-1.443-1.287 0-2.028.975-2.028 2.587s.741 2.587 2.028 2.587c.884 0 1.638-.585 1.794-1.573l1.131.065c-.221 1.56-1.456 2.522-2.925 2.522-1.911 0-3.146-1.417-3.146-3.601s1.235-3.601 3.146-3.601c1.417 0 2.678.91 2.86 2.379l-1.118.078Zm2.703-4.641h1.066v3.302c.403-.767 1.209-1.118 2.067-1.118 1.573 0 2.327 1.157 2.327 2.613V304h-1.066v-4.043c0-1.287-.429-1.989-1.482-1.989-1.118 0-1.846.702-1.846 1.989V304h-1.066v-9.23Zm7.338 2.34h1.066V304h-1.066v-6.89Zm-.026-1.079v-1.235h1.118v1.235h-1.118Zm3.123 1.079h.975l.039 1.183c.351-.923 1.17-1.339 2.119-1.339 1.573 0 2.327 1.157 2.327 2.613V304h-1.066v-4.121c0-1.274-.429-1.976-1.482-1.976-1.118 0-1.846.702-1.846 1.976V304h-1.066v-6.89Zm10.002 6.526c-1.885 0-3.094-1.404-3.094-3.341 0-1.937 1.235-3.341 3.094-3.341.923 0 1.677.52 1.976 1.261v-1.105h1.027v6.214c0 1.807-1.235 2.782-3.029 2.782-1.469 0-2.574-.806-2.873-2.002l1.118-.078c.273.663.871 1.066 1.755 1.066 1.222 0 1.963-.546 1.963-1.534v-1.144c-.416.819-1.196 1.222-1.937 1.222Zm-1.976-3.341c0 1.352.741 2.327 1.976 2.327 1.183 0 1.937-.988 1.95-2.327.026-1.339-.728-2.327-1.95-2.327-1.235 0-1.976.975-1.976 2.327Zm8.067 3.705-.728 1.989h-.624l.494-1.989h-.52v-1.391h1.378V304Zm4.592-4.862c.273-1.339 1.339-2.184 2.808-2.184 1.781 0 2.769 1.04 2.769 2.886v2.769c0 .312.13.442.429.442h.273V304h-.455c-.702 0-1.313-.234-1.3-1.079-.299.65-1.079 1.235-2.171 1.235-1.365 0-2.47-.728-2.47-1.95 0-1.417 1.079-1.781 2.587-2.08l2.041-.39c-.013-1.196-.572-1.768-1.703-1.768-.884 0-1.469.455-1.677 1.261l-1.131-.091Zm1.001 3.068c0 .559.481 1.014 1.495 1.001 1.144 0 2.041-.806 2.041-2.405v-.117l-1.651.286c-1.027.182-1.885.26-1.885 1.235Zm6.739-5.096h.975l.039 1.183c.351-.923 1.17-1.339 2.119-1.339 1.573 0 2.327 1.157 2.327 2.613V304h-1.066v-4.121c0-1.274-.429-1.976-1.482-1.976-1.118 0-1.846.702-1.846 1.976V304h-1.066v-6.89Zm13.018-2.34V304h-.962l-.039-1.014c-.39.728-1.131 1.17-2.197 1.17-1.989 0-2.912-1.69-2.912-3.601s.923-3.601 2.912-3.601c1.014 0 1.742.39 2.132 1.092v-3.276h1.066Zm-4.992 5.785c0 1.339.572 2.587 2.015 2.587 1.417 0 2.002-1.274 2.002-2.587 0-1.365-.585-2.626-2.002-2.626-1.443 0-2.015 1.248-2.015 2.626Zm-84.411 20.533c-.338 1.807-1.612 3.12-3.718 3.12-2.652 0-4.173-2.119-4.173-4.81 0-2.704 1.508-4.836 4.173-4.836 1.937 0 3.237 1.222 3.64 2.912l-1.144.078c-.299-1.144-1.157-1.924-2.496-1.924-2.106 0-3.029 1.742-3.029 3.77 0 2.015.936 3.744 3.029 3.744 1.404 0 2.288-.884 2.548-2.132l1.17.078Zm4.332 3.068c-1.911 0-3.146-1.417-3.146-3.601s1.235-3.601 3.146-3.601c1.911 0 3.146 1.417 3.146 3.601s-1.235 3.601-3.146 3.601Zm-2.028-3.601c0 1.612.741 2.587 2.028 2.587 1.274 0 2.028-.975 2.028-2.587s-.754-2.587-2.028-2.587c-1.287 0-2.028.975-2.028 2.587Zm6.828-3.445h.975l.039 1.183c.351-.923 1.17-1.339 2.119-1.339 1.573 0 2.327 1.157 2.327 2.613V324h-1.066v-4.121c0-1.274-.429-1.976-1.482-1.976-1.118 0-1.846.702-1.846 1.976V324h-1.066v-6.89Zm7.963-1.56h1.066v1.56h1.833v.949h-1.833v4.121c0 .585.286.871.832.871h.988V324h-.988c-1.222 0-1.898-.65-1.898-1.82v-4.121h-1.014v-.949h1.014v-1.56Zm3.756 5.005c0-2.184 1.235-3.601 3.146-3.601 1.534 0 2.873 1.027 2.99 3.458l.013.481h-5.018c.104 1.417.819 2.249 2.015 2.249.754 0 1.43-.442 1.742-1.17l1.144.078c-.403 1.3-1.56 2.106-2.886 2.106-1.911 0-3.146-1.417-3.146-3.601Zm1.157-.611h3.822c-.195-1.456-.975-1.976-1.833-1.976-1.105 0-1.82.728-1.989 1.976Zm6.649-2.834h.975l.039 1.183c.351-.923 1.17-1.339 2.119-1.339 1.573 0 2.327 1.157 2.327 2.613V324H575.3v-4.121c0-1.274-.429-1.976-1.482-1.976-1.118 0-1.846.702-1.846 1.976V324h-1.066v-6.89Zm7.964-1.56h1.066v1.56h1.833v.949h-1.833v4.121c0 .585.286.871.832.871h.988V324h-.988c-1.222 0-1.898-.65-1.898-1.82v-4.121h-1.014v-.949h1.014v-1.56Zm11.328-.78c1.937 0 3.146 1.066 3.146 2.782a2.2 2.2 0 0 1-1.586 2.145c.923.156 1.326.624 1.417 1.586l.247 2.717h-1.105l-.221-2.613c-.078-.832-.65-1.118-2.002-1.118h-2.288V324h-1.092v-9.23h3.484Zm-2.392 4.433h2.392c1.287 0 2.002-.598 2.002-1.677 0-1.079-.715-1.69-2.002-1.69h-2.392v3.367Zm6.842 1.352c0-2.184 1.235-3.601 3.146-3.601 1.534 0 2.873 1.027 2.99 3.458l.013.481h-5.018c.104 1.417.819 2.249 2.015 2.249.754 0 1.43-.442 1.742-1.17l1.144.078c-.403 1.3-1.56 2.106-2.886 2.106-1.911 0-3.146-1.417-3.146-3.601Zm1.157-.611h3.822c-.195-1.456-.975-1.976-1.833-1.976-1.105 0-1.82.728-1.989 1.976Zm12.329 6.006h-1.066v-2.938c-.377.741-1.105 1.144-2.067 1.144-2.054 0-2.977-1.69-2.977-3.601s.923-3.601 2.977-3.601c1.001 0 1.755.429 2.132 1.209l.039-1.053h.962v8.84Zm-4.966-5.395c0 1.339.585 2.574 2.015 2.574 1.404 0 2.002-1.261 2.002-2.574s-.598-2.587-2.002-2.587c-1.43 0-2.015 1.248-2.015 2.587ZM615.492 324h-1.014v-1.17c-.351.897-1.17 1.326-2.08 1.326-1.534 0-2.288-1.157-2.288-2.613v-4.433h1.066v4.108c0 1.287.429 1.989 1.443 1.989 1.092 0 1.807-.702 1.807-1.989v-4.108h1.066V324Zm1.715-3.445c0-2.184 1.235-3.601 3.146-3.601 1.534 0 2.873 1.027 2.99 3.458l.013.481h-5.018c.104 1.417.819 2.249 2.015 2.249.754 0 1.43-.442 1.742-1.17l1.144.078c-.403 1.3-1.56 2.106-2.886 2.106-1.911 0-3.146-1.417-3.146-3.601Zm1.157-.611h3.822c-.195-1.456-.975-1.976-1.833-1.976-1.105 0-1.82.728-1.989 1.976Zm10.626-.715c-.156-.793-.936-1.261-1.716-1.261-.78 0-1.404.403-1.404 1.066.013.676.884.962 1.664 1.131 1.573.299 2.704.741 2.704 2.08 0 1.326-1.365 1.911-2.678 1.911-1.625 0-2.873-.897-2.977-2.314l1.118-.078c.13.832.806 1.378 1.859 1.378.702 0 1.56-.234 1.56-.949 0-.832-.988-.923-1.781-1.118-1.274-.299-2.574-.663-2.574-1.976-.013-1.313 1.053-2.145 2.626-2.145 1.378 0 2.496.871 2.717 2.197l-1.118.078Zm3.263-3.679h1.066v1.56h1.833v.949h-1.833v4.121c0 .585.286.871.832.871h.988V324h-.988c-1.222 0-1.898-.65-1.898-1.82v-4.121h-1.014v-.949h1.014v-1.56Zm8.163 3.679c-.156-.793-.936-1.261-1.716-1.261-.78 0-1.404.403-1.404 1.066.013.676.884.962 1.664 1.131 1.573.299 2.704.741 2.704 2.08 0 1.326-1.365 1.911-2.678 1.911-1.625 0-2.873-.897-2.977-2.314l1.118-.078c.13.832.806 1.378 1.859 1.378.702 0 1.56-.234 1.56-.949 0-.832-.988-.923-1.781-1.118-1.274-.299-2.574-.663-2.574-1.976-.013-1.313 1.053-2.145 2.626-2.145 1.378 0 2.496.871 2.717 2.197l-1.118.078Z" fill="#909090"/>
      <path d="M662 176v24" stroke="url(#paint4_linear_2563_17395)" stroke-dasharray="1 4"/>
      <path d="M632.06 209.272c-.275 1.826-1.353 2.904-2.882 2.904-1.969 0-3.146-1.573-3.146-4.07 0-2.519 1.177-4.092 3.146-4.092 1.463 0 2.541 1.034 2.86 2.794l-1.573.088c-.22-1.023-.66-1.529-1.331-1.529-1.001 0-1.529.946-1.529 2.739 0 1.782.528 2.717 1.529 2.717.715 0 1.166-.539 1.353-1.628l1.573.077Zm3.559 2.86c-1.628 0-2.805-1.221-2.805-3.047s1.177-3.047 2.805-3.047c1.628 0 2.805 1.221 2.805 3.047s-1.177 3.047-2.805 3.047Zm-1.276-3.047c0 1.1.484 1.771 1.276 1.771s1.276-.671 1.276-1.771c0-1.1-.484-1.771-1.276-1.771s-1.276.671-1.276 1.771Zm4.88-2.915h1.232l.044.803c.231-.616.627-.935 1.155-.935s.88.319 1.089 1.001c.198-.649.583-1.001 1.155-1.001.88 0 1.331.77 1.331 2.222V212h-1.408v-3.74c0-.803-.099-1.1-.396-1.1-.33 0-.495.352-.495 1.1V212h-1.408v-3.74c0-.803-.11-1.1-.429-1.1-.308 0-.462.352-.462 1.1V212h-1.408v-5.83Zm10.699 0v4.543h1.65V212h-5.071v-1.287h1.969v-3.256h-1.969v-1.287h3.421Zm-1.485-.715v-1.265h1.474v1.265h-1.474Zm4.681.715h1.331l.055.924c.297-.693.858-1.056 1.595-1.056 1.199 0 1.826.869 1.826 2.211V212h-1.463v-3.465c0-.902-.275-1.364-.891-1.364-.638 0-1.012.462-1.012 1.364V212h-1.441v-5.83Zm8.587 5.522c-1.397 0-2.343-1.122-2.343-2.695 0-1.782.946-2.959 2.343-2.959.748 0 1.287.385 1.584 1.012l.022-.88h1.397v4.972c-.033 1.793-.935 2.64-2.585 2.64-1.386 0-2.288-.649-2.552-1.672l1.507-.099c.176.418.528.649 1.045.649.704 0 1.122-.44 1.133-1.243v-.583c-.286.539-.924.858-1.551.858Zm-.814-2.728c0 1.012.462 1.683 1.232 1.683.748 0 1.21-.671 1.21-1.683.011-1.001-.451-1.683-1.21-1.683-.77 0-1.232.682-1.232 1.683Zm15.227-.924c-.088-.495-.473-.726-1.001-.726-.462 0-.836.187-.814.572.033.418.528.528 1.309.704 1.166.264 2.112.836 2.112 1.826 0 1.144-1.001 1.716-2.409 1.716-1.452 0-2.574-.792-2.662-2.024l1.562-.066c.055.528.506.814 1.1.814.495 0 .88-.121.88-.484 0-.385-.506-.506-1.232-.682-1.243-.297-2.178-.825-2.178-1.804 0-1.133 1.056-1.848 2.431-1.848 1.276 0 2.288.759 2.475 1.936l-1.573.066Zm5.671 4.092c-1.628 0-2.805-1.221-2.805-3.047s1.177-3.047 2.805-3.047c1.628 0 2.805 1.221 2.805 3.047s-1.177 3.047-2.805 3.047Zm-1.276-3.047c0 1.1.484 1.771 1.276 1.771s1.276-.671 1.276-1.771c0-1.1-.484-1.771-1.276-1.771s-1.276.671-1.276 1.771Zm7.872 3.047c-1.628 0-2.805-1.221-2.805-3.047s1.177-3.047 2.805-3.047c1.628 0 2.805 1.221 2.805 3.047s-1.177 3.047-2.805 3.047Zm-1.276-3.047c0 1.1.484 1.771 1.276 1.771s1.276-.671 1.276-1.771c0-1.1-.484-1.771-1.276-1.771s-1.276.671-1.276 1.771Zm5.584-2.915h1.331l.055.924c.297-.693.858-1.056 1.595-1.056 1.199 0 1.826.869 1.826 2.211V212h-1.463v-3.465c0-.902-.275-1.364-.891-1.364-.638 0-1.012.462-1.012 1.364V212h-1.441v-5.83Z" fill="#CCC"/>
      <path d="M626.392 231v-9.23h1.092v8.164h4.628V231h-5.72Zm9.582.156c-1.911 0-3.146-1.417-3.146-3.601s1.235-3.601 3.146-3.601c1.911 0 3.146 1.417 3.146 3.601s-1.235 3.601-3.146 3.601Zm-2.028-3.601c0 1.612.741 2.587 2.028 2.587 1.274 0 2.028-.975 2.028-2.587s-.754-2.587-2.028-2.587c-1.287 0-2.028.975-2.028 2.587Zm11.285-1.144c-.156-.91-.897-1.443-1.742-1.443-1.287 0-2.028.975-2.028 2.587s.741 2.587 2.028 2.587c.884 0 1.638-.585 1.794-1.573l1.131.065c-.221 1.56-1.456 2.522-2.925 2.522-1.911 0-3.146-1.417-3.146-3.601s1.235-3.601 3.146-3.601c1.417 0 2.678.91 2.86 2.379l-1.118.078Zm2.453-.273c.273-1.339 1.339-2.184 2.808-2.184 1.781 0 2.769 1.04 2.769 2.886v2.769c0 .312.13.442.429.442h.273V231h-.455c-.702 0-1.313-.234-1.3-1.079-.299.65-1.079 1.235-2.171 1.235-1.365 0-2.47-.728-2.47-1.95 0-1.417 1.079-1.781 2.587-2.08l2.041-.39c-.013-1.196-.572-1.768-1.703-1.768-.884 0-1.469.455-1.677 1.261l-1.131-.091Zm1.001 3.068c0 .559.481 1.014 1.495 1.001 1.144 0 2.041-.806 2.041-2.405v-.117l-1.651.286c-1.027.182-1.885.26-1.885 1.235Zm6.867-7.436h1.066v7.852c0 .299.143.429.442.429h.585V231h-.741c-.819 0-1.352-.533-1.352-1.326v-7.904Zm3.617 2.34h1.066V231h-1.066v-6.89Zm-.026-1.079v-1.235h1.118v1.235h-1.118Zm8.489 2.249-4.394 4.771h4.498V231h-5.655v-1.157l4.407-4.784h-4.277v-.949h5.421v1.17Zm1.571.858c.273-1.339 1.339-2.184 2.808-2.184 1.781 0 2.769 1.04 2.769 2.886v2.769c0 .312.13.442.429.442h.273V231h-.455c-.702 0-1.313-.234-1.3-1.079-.299.65-1.079 1.235-2.171 1.235-1.365 0-2.47-.728-2.47-1.95 0-1.417 1.079-1.781 2.587-2.08l2.041-.39c-.013-1.196-.572-1.768-1.703-1.768-.884 0-1.469.455-1.677 1.261l-1.131-.091Zm1.001 3.068c0 .559.481 1.014 1.495 1.001 1.144 0 2.041-.806 2.041-2.405v-.117l-1.651.286c-1.027.182-1.885.26-1.885 1.235Zm6.882-6.656h1.066v1.56h1.833v.949h-1.833v4.121c0 .585.286.871.832.871h.988V231h-.988c-1.222 0-1.898-.65-1.898-1.82v-4.121h-1.014v-.949h1.014v-1.56Zm4.503 1.56h1.066V231h-1.066v-6.89Zm-.026-1.079v-1.235h1.118v1.235h-1.118Zm5.954 8.125c-1.911 0-3.146-1.417-3.146-3.601s1.235-3.601 3.146-3.601c1.911 0 3.146 1.417 3.146 3.601s-1.235 3.601-3.146 3.601Zm-2.028-3.601c0 1.612.741 2.587 2.028 2.587 1.274 0 2.028-.975 2.028-2.587s-.754-2.587-2.028-2.587c-1.287 0-2.028.975-2.028 2.587Zm6.828-3.445h.975l.039 1.183c.351-.923 1.17-1.339 2.119-1.339 1.573 0 2.327 1.157 2.327 2.613V231h-1.066v-4.121c0-1.274-.429-1.976-1.482-1.976-1.118 0-1.846.702-1.846 1.976V231h-1.066v-6.89Z" fill="#909090"/>
      <path d="M737.5 181v123" stroke="url(#paint5_linear_2563_17395)" stroke-dasharray="1 4"/>
      <path d="M707.56 313.272c-.275 1.826-1.353 2.904-2.882 2.904-1.969 0-3.146-1.573-3.146-4.07 0-2.519 1.177-4.092 3.146-4.092 1.463 0 2.541 1.034 2.86 2.794l-1.573.088c-.22-1.023-.66-1.529-1.331-1.529-1.001 0-1.529.946-1.529 2.739 0 1.782.528 2.717 1.529 2.717.715 0 1.166-.539 1.353-1.628l1.573.077Zm3.559 2.86c-1.628 0-2.805-1.221-2.805-3.047s1.177-3.047 2.805-3.047c1.628 0 2.805 1.221 2.805 3.047s-1.177 3.047-2.805 3.047Zm-1.276-3.047c0 1.1.484 1.771 1.276 1.771s1.276-.671 1.276-1.771c0-1.1-.484-1.771-1.276-1.771s-1.276.671-1.276 1.771Zm4.88-2.915h1.232l.044.803c.231-.616.627-.935 1.155-.935s.88.319 1.089 1.001c.198-.649.583-1.001 1.155-1.001.88 0 1.331.77 1.331 2.222V316h-1.408v-3.74c0-.803-.099-1.1-.396-1.1-.33 0-.495.352-.495 1.1V316h-1.408v-3.74c0-.803-.11-1.1-.429-1.1-.308 0-.462.352-.462 1.1V316h-1.408v-5.83Zm10.699 0v4.543h1.65V316h-5.071v-1.287h1.969v-3.256h-1.969v-1.287h3.421Zm-1.485-.715v-1.265h1.474v1.265h-1.474Zm4.681.715h1.331l.055.924c.297-.693.858-1.056 1.595-1.056 1.199 0 1.826.869 1.826 2.211V316h-1.463v-3.465c0-.902-.275-1.364-.891-1.364-.638 0-1.012.462-1.012 1.364V316h-1.441v-5.83Zm8.587 5.522c-1.397 0-2.343-1.122-2.343-2.695 0-1.782.946-2.959 2.343-2.959.748 0 1.287.385 1.584 1.012l.022-.88h1.397v4.972c-.033 1.793-.935 2.64-2.585 2.64-1.386 0-2.288-.649-2.552-1.672l1.507-.099c.176.418.528.649 1.045.649.704 0 1.122-.44 1.133-1.243v-.583c-.286.539-.924.858-1.551.858Zm-.814-2.728c0 1.012.462 1.683 1.232 1.683.748 0 1.21-.671 1.21-1.683.011-1.001-.451-1.683-1.21-1.683-.77 0-1.232.682-1.232 1.683Zm15.227-.924c-.088-.495-.473-.726-1.001-.726-.462 0-.836.187-.814.572.033.418.528.528 1.309.704 1.166.264 2.112.836 2.112 1.826 0 1.144-1.001 1.716-2.409 1.716-1.452 0-2.574-.792-2.662-2.024l1.562-.066c.055.528.506.814 1.1.814.495 0 .88-.121.88-.484 0-.385-.506-.506-1.232-.682-1.243-.297-2.178-.825-2.178-1.804 0-1.133 1.056-1.848 2.431-1.848 1.276 0 2.288.759 2.475 1.936l-1.573.066Zm5.671 4.092c-1.628 0-2.805-1.221-2.805-3.047s1.177-3.047 2.805-3.047c1.628 0 2.805 1.221 2.805 3.047s-1.177 3.047-2.805 3.047Zm-1.276-3.047c0 1.1.484 1.771 1.276 1.771s1.276-.671 1.276-1.771c0-1.1-.484-1.771-1.276-1.771s-1.276.671-1.276 1.771Zm7.872 3.047c-1.628 0-2.805-1.221-2.805-3.047s1.177-3.047 2.805-3.047c1.628 0 2.805 1.221 2.805 3.047s-1.177 3.047-2.805 3.047Zm-1.276-3.047c0 1.1.484 1.771 1.276 1.771s1.276-.671 1.276-1.771c0-1.1-.484-1.771-1.276-1.771s-1.276.671-1.276 1.771Zm5.584-2.915h1.331l.055.924c.297-.693.858-1.056 1.595-1.056 1.199 0 1.826.869 1.826 2.211V316h-1.463v-3.465c0-.902-.275-1.364-.891-1.364-.638 0-1.012.462-1.012 1.364V316h-1.441v-5.83Z" fill="#CCC"/>
      <path d="M722.338 335h-.806l-.104-1.534c-.39 1.027-1.534 1.742-2.769 1.742-2.652 0-4.173-2.119-4.173-4.81 0-2.704 1.508-4.836 4.173-4.836 1.937 0 3.224 1.209 3.64 2.912l-1.144.078c-.312-1.144-1.17-1.924-2.496-1.924-2.106 0-3.029 1.742-3.029 3.77 0 2.015.936 3.744 3.029 3.744 1.612 0 2.522-1.183 2.613-2.73h-2.613v-1.066h3.679V335Zm1.44-3.445c0-2.184 1.235-3.601 3.146-3.601 1.534 0 2.873 1.027 2.99 3.458l.013.481h-5.018c.104 1.417.819 2.249 2.015 2.249.754 0 1.43-.442 1.742-1.17l1.144.078c-.403 1.3-1.56 2.106-2.886 2.106-1.911 0-3.146-1.417-3.146-3.601Zm1.157-.611h3.822c-.195-1.456-.975-1.976-1.833-1.976-1.105 0-1.82.728-1.989 1.976Zm6.649-2.834h.975l.039 1.183c.351-.923 1.17-1.339 2.119-1.339 1.573 0 2.327 1.157 2.327 2.613V335h-1.066v-4.121c0-1.274-.429-1.976-1.482-1.976-1.118 0-1.846.702-1.846 1.976V335h-1.066v-6.89Zm6.908 3.445c0-2.184 1.235-3.601 3.146-3.601 1.534 0 2.873 1.027 2.99 3.458l.013.481h-5.018c.104 1.417.819 2.249 2.015 2.249.754 0 1.43-.442 1.742-1.17l1.144.078c-.403 1.3-1.56 2.106-2.886 2.106-1.911 0-3.146-1.417-3.146-3.601Zm1.157-.611h3.822c-.195-1.456-.975-1.976-1.833-1.976-1.105 0-1.82.728-1.989 1.976Zm6.649-2.834h.936l.039 1.274c.234-.871.754-1.274 1.651-1.274h.663v.936h-.663c-1.053 0-1.56.65-1.56 1.846V335h-1.066v-6.89Zm4.371 2.028c.273-1.339 1.339-2.184 2.808-2.184 1.781 0 2.769 1.04 2.769 2.886v2.769c0 .312.13.442.429.442h.273V335h-.455c-.702 0-1.313-.234-1.3-1.079-.299.65-1.079 1.235-2.171 1.235-1.365 0-2.47-.728-2.47-1.95 0-1.417 1.079-1.781 2.587-2.08l2.041-.39c-.013-1.196-.572-1.768-1.703-1.768-.884 0-1.469.455-1.677 1.261l-1.131-.091Zm1.001 3.068c0 .559.481 1.014 1.495 1.001 1.144 0 2.041-.806 2.041-2.405v-.117l-1.651.286c-1.027.182-1.885.26-1.885 1.235Zm6.867-7.436h1.066v7.852c0 .299.143.429.442.429h.585V335h-.741c-.819 0-1.352-.533-1.352-1.326v-7.904ZM704.689 355l3.341-9.23h1.456l3.341 9.23h-1.196l-.923-2.639h-3.9l-.923 2.639h-1.196Zm2.496-3.705h3.146l-1.573-4.563-1.573 4.563Zm11.923-3.185-2.522 6.89h-1.326l-2.522-6.89h1.144l2.041 5.772 2.041-5.772h1.144Zm.763 2.028c.273-1.339 1.339-2.184 2.808-2.184 1.781 0 2.769 1.04 2.769 2.886v2.769c0 .312.13.442.429.442h.273V355h-.455c-.702 0-1.313-.234-1.3-1.079-.299.65-1.079 1.235-2.171 1.235-1.365 0-2.47-.728-2.47-1.95 0-1.417 1.079-1.781 2.587-2.08l2.041-.39c-.013-1.196-.572-1.768-1.703-1.768-.884 0-1.469.455-1.677 1.261l-1.131-.091Zm1.001 3.068c0 .559.481 1.014 1.495 1.001 1.144 0 2.041-.806 2.041-2.405v-.117l-1.651.286c-1.027.182-1.885.26-1.885 1.235Zm6.739-5.096h1.066V355h-1.066v-6.89Zm-.026-1.079v-1.235h1.118v1.235h-1.118Zm3.327-1.261h1.066v7.852c0 .299.143.429.442.429h.585V355h-.741c-.819 0-1.352-.533-1.352-1.326v-7.904Zm3.342 4.368c.273-1.339 1.339-2.184 2.808-2.184 1.781 0 2.769 1.04 2.769 2.886v2.769c0 .312.13.442.429.442h.273V355h-.455c-.702 0-1.313-.234-1.3-1.079-.299.65-1.079 1.235-2.171 1.235-1.365 0-2.47-.728-2.47-1.95 0-1.417 1.079-1.781 2.587-2.08l2.041-.39c-.013-1.196-.572-1.768-1.703-1.768-.884 0-1.469.455-1.677 1.261l-1.131-.091Zm1.001 3.068c0 .559.481 1.014 1.495 1.001 1.144 0 2.041-.806 2.041-2.405v-.117l-1.651.286c-1.027.182-1.885.26-1.885 1.235Zm6.841-7.436h1.066v3.276c.39-.702 1.118-1.092 2.132-1.092 1.989 0 2.912 1.69 2.912 3.601s-.923 3.601-2.912 3.601c-1.066 0-1.807-.442-2.197-1.17l-.039 1.014h-.962v-9.23Zm.975 5.785c0 1.313.585 2.587 2.002 2.587 1.443 0 2.015-1.248 2.015-2.587 0-1.378-.572-2.626-2.015-2.626-1.417 0-2.002 1.261-2.002 2.626Zm6.782-3.445h1.066V355h-1.066v-6.89Zm-.026-1.079v-1.235h1.118v1.235h-1.118Zm3.327-1.261h1.066v7.852c0 .299.143.429.442.429h.585V355h-.741c-.819 0-1.352-.533-1.352-1.326v-7.904Zm3.618 2.34h1.066V355h-1.066v-6.89Zm-.026-1.079v-1.235h1.118v1.235h-1.118Zm3.483-.481h1.066v1.56h1.833v.949h-1.833v4.121c0 .585.286.871.832.871h.988V355h-.988c-1.222 0-1.898-.65-1.898-1.82v-4.121h-1.014v-.949h1.014v-1.56Zm3.684 1.56h1.144l2.093 5.746 2.015-5.746h1.131l-2.795 7.761c-.26.741-.754 1.079-1.534 1.079h-.819v-.949h.715c.351 0 .559-.13.689-.494l.247-.637h-.364l-2.522-6.76Z" fill="#909090"/>
      <path d="M819.5 148v103" stroke="url(#paint6_linear_2563_17395)" stroke-dasharray="1 4"/>
      <path d="M789.56 260.272c-.275 1.826-1.353 2.904-2.882 2.904-1.969 0-3.146-1.573-3.146-4.07 0-2.519 1.177-4.092 3.146-4.092 1.463 0 2.541 1.034 2.86 2.794l-1.573.088c-.22-1.023-.66-1.529-1.331-1.529-1.001 0-1.529.946-1.529 2.739 0 1.782.528 2.717 1.529 2.717.715 0 1.166-.539 1.353-1.628l1.573.077Zm3.559 2.86c-1.628 0-2.805-1.221-2.805-3.047s1.177-3.047 2.805-3.047c1.628 0 2.805 1.221 2.805 3.047s-1.177 3.047-2.805 3.047Zm-1.276-3.047c0 1.1.484 1.771 1.276 1.771s1.276-.671 1.276-1.771c0-1.1-.484-1.771-1.276-1.771s-1.276.671-1.276 1.771Zm4.88-2.915h1.232l.044.803c.231-.616.627-.935 1.155-.935s.88.319 1.089 1.001c.198-.649.583-1.001 1.155-1.001.88 0 1.331.77 1.331 2.222V263h-1.408v-3.74c0-.803-.099-1.1-.396-1.1-.33 0-.495.352-.495 1.1V263h-1.408v-3.74c0-.803-.11-1.1-.429-1.1-.308 0-.462.352-.462 1.1V263h-1.408v-5.83Zm10.699 0v4.543h1.65V263h-5.071v-1.287h1.969v-3.256h-1.969v-1.287h3.421Zm-1.485-.715v-1.265h1.474v1.265h-1.474Zm4.681.715h1.331l.055.924c.297-.693.858-1.056 1.595-1.056 1.199 0 1.826.869 1.826 2.211V263h-1.463v-3.465c0-.902-.275-1.364-.891-1.364-.638 0-1.012.462-1.012 1.364V263h-1.441v-5.83Zm8.587 5.522c-1.397 0-2.343-1.122-2.343-2.695 0-1.782.946-2.959 2.343-2.959.748 0 1.287.385 1.584 1.012l.022-.88h1.397v4.972c-.033 1.793-.935 2.64-2.585 2.64-1.386 0-2.288-.649-2.552-1.672l1.507-.099c.176.418.528.649 1.045.649.704 0 1.122-.44 1.133-1.243v-.583c-.286.539-.924.858-1.551.858Zm-.814-2.728c0 1.012.462 1.683 1.232 1.683.748 0 1.21-.671 1.21-1.683.011-1.001-.451-1.683-1.21-1.683-.77 0-1.232.682-1.232 1.683Zm15.227-.924c-.088-.495-.473-.726-1.001-.726-.462 0-.836.187-.814.572.033.418.528.528 1.309.704 1.166.264 2.112.836 2.112 1.826 0 1.144-1.001 1.716-2.409 1.716-1.452 0-2.574-.792-2.662-2.024l1.562-.066c.055.528.506.814 1.1.814.495 0 .88-.121.88-.484 0-.385-.506-.506-1.232-.682-1.243-.297-2.178-.825-2.178-1.804 0-1.133 1.056-1.848 2.431-1.848 1.276 0 2.288.759 2.475 1.936l-1.573.066Zm5.671 4.092c-1.628 0-2.805-1.221-2.805-3.047s1.177-3.047 2.805-3.047c1.628 0 2.805 1.221 2.805 3.047s-1.177 3.047-2.805 3.047Zm-1.276-3.047c0 1.1.484 1.771 1.276 1.771s1.276-.671 1.276-1.771c0-1.1-.484-1.771-1.276-1.771s-1.276.671-1.276 1.771Zm7.872 3.047c-1.628 0-2.805-1.221-2.805-3.047s1.177-3.047 2.805-3.047c1.628 0 2.805 1.221 2.805 3.047s-1.177 3.047-2.805 3.047Zm-1.276-3.047c0 1.1.484 1.771 1.276 1.771s1.276-.671 1.276-1.771c0-1.1-.484-1.771-1.276-1.771s-1.276.671-1.276 1.771Zm5.584-2.915h1.331l.055.924c.297-.693.858-1.056 1.595-1.056 1.199 0 1.826.869 1.826 2.211V263h-1.463v-3.465c0-.902-.275-1.364-.891-1.364-.638 0-1.012.462-1.012 1.364V263h-1.441v-5.83Z" fill="#CCC"/>
      <path d="M805.171 272.77c2.054 0 3.263 1.04 3.263 2.782 0 1.781-1.209 2.847-3.263 2.847h-2.21V282h-1.092v-9.23h3.302Zm-2.21 4.563h2.21c1.417 0 2.119-.598 2.119-1.781 0-1.144-.702-1.716-2.119-1.716h-2.21v3.497ZM815.514 282H814.5v-1.17c-.351.897-1.17 1.326-2.08 1.326-1.534 0-2.288-1.157-2.288-2.613v-4.433h1.066v4.108c0 1.287.429 1.989 1.443 1.989 1.092 0 1.807-.702 1.807-1.989v-4.108h1.066V282Zm2.019-9.23h1.066v3.276c.39-.702 1.118-1.092 2.132-1.092 1.989 0 2.912 1.69 2.912 3.601s-.923 3.601-2.912 3.601c-1.066 0-1.807-.442-2.197-1.17l-.039 1.014h-.962v-9.23Zm.975 5.785c0 1.313.585 2.587 2.002 2.587 1.443 0 2.015-1.248 2.015-2.587 0-1.378-.572-2.626-2.015-2.626-1.417 0-2.002 1.261-2.002 2.626Zm6.871-5.785h1.066v7.852c0 .299.143.429.442.429h.585V282h-.741c-.819 0-1.352-.533-1.352-1.326v-7.904Zm3.618 2.34h1.066V282h-1.066v-6.89Zm-.026-1.079v-1.235h1.118v1.235h-1.118Zm7.695 3.38c-.156-.91-.897-1.443-1.742-1.443-1.287 0-2.028.975-2.028 2.587s.741 2.587 2.028 2.587c.884 0 1.638-.585 1.794-1.573l1.131.065c-.221 1.56-1.456 2.522-2.925 2.522-1.911 0-3.146-1.417-3.146-3.601s1.235-3.601 3.146-3.601c1.417 0 2.678.91 2.86 2.379l-1.118.078Zm-50.134 15.359c1.937 0 3.146 1.066 3.146 2.782a2.2 2.2 0 0 1-1.586 2.145c.923.156 1.326.624 1.417 1.586l.247 2.717h-1.105l-.221-2.613c-.078-.832-.65-1.118-2.002-1.118h-2.288V302h-1.092v-9.23h3.484Zm-2.392 4.433h2.392c1.287 0 2.002-.598 2.002-1.677 0-1.079-.715-1.69-2.002-1.69h-2.392v3.367Zm6.842 1.352c0-2.184 1.235-3.601 3.146-3.601 1.534 0 2.873 1.027 2.99 3.458l.013.481h-5.018c.104 1.417.819 2.249 2.015 2.249.754 0 1.43-.442 1.742-1.17l1.144.078c-.403 1.3-1.56 2.106-2.886 2.106-1.911 0-3.146-1.417-3.146-3.601Zm1.157-.611h3.822c-.195-1.456-.975-1.976-1.833-1.976-1.105 0-1.82.728-1.989 1.976Zm6.649 6.006v-8.84h.962l.039 1.053c.377-.78 1.131-1.209 2.132-1.209 2.054 0 2.977 1.69 2.977 3.601s-.923 3.601-2.977 3.601c-.962 0-1.69-.403-2.067-1.144v2.938h-1.066Zm.949-5.395c0 1.313.598 2.574 2.002 2.574 1.43 0 2.015-1.235 2.015-2.574 0-1.339-.585-2.587-2.015-2.587-1.404 0-2.002 1.274-2.002 2.587Zm9.523 3.601c-1.911 0-3.146-1.417-3.146-3.601s1.235-3.601 3.146-3.601c1.911 0 3.146 1.417 3.146 3.601s-1.235 3.601-3.146 3.601Zm-2.028-3.601c0 1.612.741 2.587 2.028 2.587 1.274 0 2.028-.975 2.028-2.587s-.754-2.587-2.028-2.587c-1.287 0-2.028.975-2.028 2.587Zm10.805-1.326c-.156-.793-.936-1.261-1.716-1.261-.78 0-1.404.403-1.404 1.066.013.676.884.962 1.664 1.131 1.573.299 2.704.741 2.704 2.08 0 1.326-1.365 1.911-2.678 1.911-1.625 0-2.873-.897-2.977-2.314l1.118-.078c.13.832.806 1.378 1.859 1.378.702 0 1.56-.234 1.56-.949 0-.832-.988-.923-1.781-1.118-1.274-.299-2.574-.663-2.574-1.976-.013-1.313 1.053-2.145 2.626-2.145 1.378 0 2.496.871 2.717 2.197l-1.118.078Zm2.904-2.119h1.066V302h-1.066v-6.89Zm-.026-1.079v-1.235h1.118v1.235h-1.118Zm3.483-.481h1.066v1.56h1.833v.949h-1.833v4.121c0 .585.286.871.832.871h.988V302h-.988c-1.222 0-1.898-.65-1.898-1.82v-4.121h-1.014v-.949h1.014v-1.56Zm6.901 8.606c-1.911 0-3.146-1.417-3.146-3.601s1.235-3.601 3.146-3.601c1.911 0 3.146 1.417 3.146 3.601s-1.235 3.601-3.146 3.601Zm-2.028-3.601c0 1.612.741 2.587 2.028 2.587 1.274 0 2.028-.975 2.028-2.587s-.754-2.587-2.028-2.587c-1.287 0-2.028.975-2.028 2.587Zm6.829-3.445h.936l.039 1.274c.234-.871.754-1.274 1.651-1.274h.663v.936h-.663c-1.053 0-1.56.65-1.56 1.846V302H836.1v-6.89Zm4.621 0h1.066V302h-1.066v-6.89Zm-.026-1.079v-1.235h1.118v1.235h-1.118Zm2.807 4.524c0-2.184 1.235-3.601 3.146-3.601 1.534 0 2.873 1.027 2.99 3.458l.013.481h-5.018c.104 1.417.819 2.249 2.015 2.249.754 0 1.43-.442 1.742-1.17l1.144.078c-.403 1.3-1.56 2.106-2.886 2.106-1.911 0-3.146-1.417-3.146-3.601Zm1.157-.611h3.822c-.195-1.456-.975-1.976-1.833-1.976-1.105 0-1.82.728-1.989 1.976Zm10.626-.715c-.156-.793-.936-1.261-1.716-1.261-.78 0-1.404.403-1.404 1.066.013.676.884.962 1.664 1.131 1.573.299 2.704.741 2.704 2.08 0 1.326-1.365 1.911-2.678 1.911-1.625 0-2.873-.897-2.977-2.314l1.118-.078c.13.832.806 1.378 1.859 1.378.702 0 1.56-.234 1.56-.949 0-.832-.988-.923-1.781-1.118-1.274-.299-2.574-.663-2.574-1.976-.013-1.313 1.053-2.145 2.626-2.145 1.378 0 2.496.871 2.717 2.197l-1.118.078Z" fill="#909090"/>
      <path d="M667 0h245v800H667z" fill="url(#paint7_linear_2563_17395)"/>
      <path d="M0 0h400v800H0z" fill="url(#paint8_linear_2563_17395)"/>
      <rect height="21" rx="10.5" stroke="#252525" width="56" x="119.5" y="12.5"/>
      <path d="m140.535 21.17-2.09 5.83h-1.672l-2.09-5.83h1.551l1.375 4.213 1.375-4.213h1.551Zm3.669 6.006c-1.782 0-2.86-1.639-2.86-4.07 0-2.442 1.078-4.092 2.86-4.092 1.782 0 2.86 1.65 2.86 4.092 0 2.431-1.078 4.07-2.86 4.07Zm-1.287-4.07c0 1.738.473 2.717 1.287 2.717s1.287-.979 1.287-2.717c0-1.76-.473-2.739-1.287-2.739s-1.287.979-1.287 2.739Zm7.069 2.277h1.628V27h-1.628v-1.617Zm4.748.264h2.156v-3.784h-1.98v-1.21h.66c1.056 0 1.529-.44 1.54-1.463h1.265v6.457h1.881V27h-5.522v-1.353Z" fill="#CCC"/>
      <path d="M97.344 42.77h1.144V52h-1.144v-9.23Zm3.195 2.34h1.014l.039 1.183c.351-.923 1.157-1.339 2.106-1.339 1.573 0 2.327 1.157 2.327 2.613V52h-1.118v-4.121c0-1.261-.416-1.937-1.443-1.937-1.092 0-1.807.676-1.807 1.937V52h-1.118v-6.89Zm7.566 0h1.118V52h-1.118v-6.89Zm-.026-1.079V42.77h1.17v1.261h-1.17Zm3.381-.481h1.118v1.56h1.846v.988h-1.846v4.056c0 .572.273.858.819.858h1.001V52h-1.001c-1.248 0-1.937-.663-1.937-1.846v-4.056h-1.001v-.988h1.001v-1.56Zm4.491 1.56h1.118V52h-1.118v-6.89Zm-.026-1.079V42.77h1.17v1.261h-1.17Zm2.913 3.107c.273-1.339 1.352-2.184 2.821-2.184 1.781 0 2.782 1.04 2.782 2.886v2.756c0 .286.13.416.416.416h.286V52h-.481c-.702 0-1.326-.221-1.326-1.053-.286.624-1.04 1.209-2.132 1.209-1.365 0-2.483-.728-2.483-1.963 0-1.43 1.066-1.781 2.6-2.08l2.002-.39c-.013-1.144-.559-1.703-1.664-1.703-.858 0-1.43.429-1.638 1.209l-1.183-.091Zm1.053 3.055c0 .533.455.975 1.456.975 1.118 0 2.002-.78 2.002-2.392v-.065l-1.612.286c-1.014.182-1.846.234-1.846 1.196Zm6.75-7.423h1.118v7.826c0 .286.13.416.416.416h.598V52h-.78c-.806 0-1.352-.546-1.352-1.352V42.77Zm10.415 0c2.067 0 3.276 1.04 3.276 2.795 0 1.794-1.209 2.86-3.276 2.86h-2.171V52h-1.144v-9.23h3.315Zm-2.171 4.537h2.171c1.391 0 2.08-.585 2.08-1.742 0-1.118-.689-1.677-2.08-1.677h-2.171v3.419Zm7.041-2.197h.988l.039 1.235c.221-.845.728-1.235 1.625-1.235h.676v.988h-.676c-1.053 0-1.534.611-1.534 1.794V52h-1.118v-6.89Zm7.186 7.046c-1.911 0-3.159-1.404-3.159-3.601s1.248-3.601 3.159-3.601c1.911 0 3.159 1.404 3.159 3.601s-1.248 3.601-3.159 3.601Zm-1.989-3.601c0 1.586.728 2.535 1.989 2.535 1.261 0 1.989-.949 1.989-2.535 0-1.586-.728-2.535-1.989-2.535-1.261 0-1.989.949-1.989 2.535Zm7.082-5.005h1.118v1.56h1.846v.988h-1.846v4.056c0 .572.273.858.819.858h1.001V52h-1.001c-1.248 0-1.937-.663-1.937-1.846v-4.056h-1.001v-.988h1.001v-1.56Zm7.031 8.606c-1.911 0-3.159-1.404-3.159-3.601s1.248-3.601 3.159-3.601c1.911 0 3.159 1.404 3.159 3.601s-1.248 3.601-3.159 3.601Zm-1.989-3.601c0 1.586.728 2.535 1.989 2.535 1.261 0 1.989-.949 1.989-2.535 0-1.586-.728-2.535-1.989-2.535-1.261 0-1.989.949-1.989 2.535Zm7.082-5.005h1.118v1.56h1.846v.988h-1.846v4.056c0 .572.273.858.819.858h1.001V52h-1.001c-1.248 0-1.937-.663-1.937-1.846v-4.056h-1.001v-.988h1.001v-1.56Zm3.737 1.56h1.196l2.054 5.694 1.989-5.694h1.183l-2.782 7.761c-.26.741-.754 1.079-1.534 1.079h-.91v-.988h.793c.325 0 .52-.13.65-.455l.247-.637h-.377l-2.509-6.76Zm7.749 8.84v-8.84h1.014l.039 1.001c.377-.741 1.105-1.157 2.106-1.157 2.067 0 2.977 1.716 2.977 3.601s-.91 3.601-2.977 3.601c-.949 0-1.664-.364-2.041-1.079v2.873h-1.118Zm.988-5.395c0 1.274.572 2.535 1.976 2.535 1.417 0 1.976-1.248 1.976-2.535 0-1.287-.559-2.535-1.976-2.535-1.404 0-1.976 1.261-1.976 2.535Zm6.366 0c0-2.197 1.248-3.601 3.159-3.601 1.508 0 2.873.975 2.99 3.445l.013.507h-4.979c.104 1.378.806 2.184 1.976 2.184.728 0 1.391-.416 1.703-1.131l1.196.091c-.403 1.3-1.573 2.106-2.899 2.106-1.911 0-3.159-1.404-3.159-3.601Zm1.209-.637h3.731c-.195-1.43-.962-1.898-1.781-1.898-1.079 0-1.768.702-1.95 1.898Zm10.56-.676c-.156-.767-.923-1.222-1.677-1.222s-1.365.377-1.365 1.027c0 .676.897.949 1.625 1.092 1.56.299 2.717.728 2.717 2.106 0 1.339-1.391 1.911-2.691 1.911-1.638 0-2.886-.897-2.99-2.327l1.17-.078c.143.819.793 1.339 1.82 1.339.65 0 1.521-.208 1.521-.91 0-.819-.962-.897-1.742-1.079-1.248-.286-2.6-.637-2.6-1.989 0-1.326 1.066-2.158 2.652-2.158 1.378 0 2.509.871 2.73 2.21l-1.17.078Z" fill="#F3F3F3"/>
      <path d="M147.5 60v60" stroke="#CCC" stroke-linecap="round"/>
      <circle cx="147.5" cy="128" fill="#CCC" r="5"/>
      <rect fill="#CCC" height="20" rx="10" width="53" x="121" y="136"/>
      <path d="M132.137 144.578c.221-1.742 1.482-3.016 3.38-3.016 1.755 0 3.042 1.131 3.042 2.678 0 1.365-1.079 2.262-2.431 3.081-.637.364-2.392 1.534-2.444 2.405h4.94V151h-6.63c0-2.782 1.885-3.848 3.51-4.849.949-.598 1.625-1.235 1.625-1.924 0-.806-.663-1.391-1.612-1.391-1.027 0-1.729.65-1.95 1.833l-1.43-.091Zm11.434 6.63c-2.314 0-3.731-1.872-3.731-4.81 0-2.964 1.417-4.836 3.731-4.836 2.327 0 3.744 1.872 3.744 4.836 0 2.938-1.417 4.81-3.744 4.81Zm-2.301-4.81c0 2.275.819 3.536 2.301 3.536 1.495 0 2.314-1.261 2.314-3.536 0-2.288-.819-3.562-2.314-3.562-1.482 0-2.301 1.274-2.301 3.562Zm7.409-1.82c.221-1.742 1.482-3.016 3.38-3.016 1.755 0 3.042 1.131 3.042 2.678 0 1.365-1.079 2.262-2.431 3.081-.637.364-2.392 1.534-2.444 2.405h4.94V151h-6.63c0-2.782 1.885-3.848 3.51-4.849.949-.598 1.625-1.235 1.625-1.924 0-.806-.663-1.391-1.612-1.391-1.027 0-1.729.65-1.95 1.833l-1.43-.091Zm7.846 0c.221-1.742 1.482-3.016 3.38-3.016 1.755 0 3.042 1.131 3.042 2.678 0 1.365-1.079 2.262-2.431 3.081-.637.364-2.392 1.534-2.444 2.405h4.94V151h-6.63c0-2.782 1.885-3.848 3.51-4.849.949-.598 1.625-1.235 1.625-1.924 0-.806-.663-1.391-1.612-1.391-1.027 0-1.729.65-1.95 1.833l-1.43-.091Z" fill="#040404"/>
    </g>
  </g>
  <defs>
    <linearGradient gradientUnits="userSpaceOnUse" id="paint0_linear_2563_17395" x1="900.5" x2="900.5" y1="95" y2="550.5">
      <stop stop-color="#F3F3F3"/>
      <stop offset=".395" stop-color="#F3F3F3" stop-opacity="0"/>
    </linearGradient>
    <linearGradient gradientUnits="userSpaceOnUse" id="paint1_linear_2563_17395" x1="193" x2="193" y1="129" y2="246">
      <stop stop-color="#909090" stop-opacity="0"/>
      <stop offset=".275" stop-color="#909090"/>
    </linearGradient>
    <linearGradient gradientUnits="userSpaceOnUse" id="paint2_linear_2563_17395" x1="277" x2="277" y1="171" y2="341">
      <stop stop-color="#909090" stop-opacity="0"/>
      <stop offset=".275" stop-color="#909090"/>
    </linearGradient>
    <linearGradient gradientUnits="userSpaceOnUse" id="paint3_linear_2563_17395" x1="588.5" x2="588.5" y1="140" y2="273">
      <stop stop-color="#909090" stop-opacity="0"/>
      <stop offset=".275" stop-color="#909090"/>
    </linearGradient>
    <linearGradient gradientUnits="userSpaceOnUse" id="paint4_linear_2563_17395" x1="662.5" x2="662.5" y1="176" y2="200">
      <stop stop-color="#909090" stop-opacity="0"/>
      <stop offset=".275" stop-color="#909090"/>
    </linearGradient>
    <linearGradient gradientUnits="userSpaceOnUse" id="paint5_linear_2563_17395" x1="738" x2="738" y1="181" y2="304">
      <stop stop-color="#909090" stop-opacity="0"/>
      <stop offset=".275" stop-color="#909090"/>
    </linearGradient>
    <linearGradient gradientUnits="userSpaceOnUse" id="paint6_linear_2563_17395" x1="820" x2="820" y1="148" y2="251">
      <stop stop-color="#909090" stop-opacity="0"/>
      <stop offset=".275" stop-color="#909090"/>
    </linearGradient>
    <linearGradient gradientUnits="userSpaceOnUse" id="paint7_linear_2563_17395" x1="667" x2="906.2" y1="401.223" y2="438.47">
      <stop offset=".29" stop-color="#040404" stop-opacity="0"/>
      <stop offset="1" stop-color="#040404"/>
    </linearGradient>
    <linearGradient gradientUnits="userSpaceOnUse" id="paint8_linear_2563_17395" x1="0" x2="375.717" y1="401.223" y2="496.741">
      <stop stop-color="#040404"/>
      <stop offset=".555" stop-color="#040404" stop-opacity="0"/>
    </linearGradient>
    <clipPath id="clip0_2563_17395">
      <path d="M0 0h912v480H0z" fill="#fff"/>
    </clipPath>
    <clipPath id="clip1_2563_17395">
      <path d="M0-20h912v500H0z" fill="#fff"/>
    </clipPath>
  </defs>
</svg>